{"title":"Dombivali Fast 2005 Marathi 1080p Untouched WebHD x264 AAC [TMB]","uid":15586519,"size":3446714210,"categoryP":"video","categoryS":"movies","magnet":"?xt=urn:btih:1816e84d2ea2fc14165c53fb9dcbe0dc769e5fbf&amp;dn=Dombivali+Fast+2005+Marathi+1080p+Untouched+WebHD+x264+AAC+%5BTMB%5D&amp;tr=udp%3A%2F%2Ftracker.leechers-paradise.org%3A6969&amp;tr=udp%3A%2F%2Fzer0day.ch%3A1337&amp;tr=udp%3A%2F%2Fopen.demonii.com%3A1337&amp;tr=udp%3A%2F%2Ftracker.coppersurfer.tk%3A6969&amp;tr=udp%3A%2F%2Fexodus.desync.com%3A6969","seeders":1,"leechers":1,"uploader":"Manoj_vb","files":1,"time":1471468700,"description":"http://i1306.photobucket.com/albums/s570/zyx55e/44_zpsc46e809d.gif\r\n \nhttps://postimg.org/image/izzybuby3/\r\n \nhttps://postimg.org/image/4uu5a12wr/\r\n \nhttps://postimg.org/image/id11mbf23/\r\n \nhttps://postimg.org/image/phiuvcmbf/\r\n \nhttps://postimg.org/image/7svphgzy3/\r\n \nhttps://postimg.org/image/7he94pji3/\r\n \nhttps://postimg.org/image/4ol1koj5n/\r\n \nhttps://postimg.org/image/stlr2e3gb/\r\n \nhttps://postimg.org/image/x40exz8jf/\r\n \nhttps://postimg.org/image/fs02cjf23/\r\n \nhttps://postimg.org/image/krxikhkor/\r\n \nhttp://i1306.photobucket.com/albums/s570/zyx55e/oie_11162011MOJeDGQI_zpsc25b2b81.gif\r\n\r\nGeneral\r\nComplete name               : Dombivali Fast 2005 1080p Untouched WebHD x264 AAC [TMB].mp4\r\nFormat                      : MPEG-4\r\nFormat profile              : Base Media\r\nCodec ID                    : isom (isom/iso2/avc1/mp41)\r\nFile size                   : 3.21 GiB\r\nDuration                    : 1h 40mn\r\nOverall bit rate mode       : Variable\r\nOverall bit rate            : 4 566 Kbps\r\nWriting application         : Lavf56.40.101\r\n\r\nVideo\r\nFormat                      : AVC\r\nFormat/Info                 : Advanced Video Codec\r\nFormat profile              :   \r\nFormat settings, CABAC      : Yes\r\nFormat settings, ReFrames   : 1 frame\r\nFormat settings, GOP        : M=1, N=25\r\nCodec ID                    : avc1\r\nCodec ID/Info               : Advanced Video Coding\r\nDuration                    : 1h 40mn\r\nBit rate mode               : Constant\r\nBit rate                    : 4 500 Kbps\r\nWidth                       : 1 920 pixels\r\nHeight                      : 1 080 pixels\r\nDisplay aspect ratio        : 16:9\r\nFrame rate mode             : Constant\r\nFrame rate                  : 25.000 fps\r\nColor space                 : YUV\r\nChroma subsampling          : 4:2:0\r\nBit depth                   : 8 bits\r\nScan type                   : Progressive\r\nBits/(Pixel*Frame)          : 0.087\r\nStream size                 : 3.16 GiB (99%)\r\n\r\nAudio\r\nFormat                      : AAC\r\nFormat/Info                 : Advanced Audio Codec\r\nFormat profile              : LC\r\nCodec ID                    : 40\r\nDuration                    : 1h 40mn\r\nBit rate mode               : Variable\r\nBit rate                    : 61.4 Kbps\r\nMaximum bit rate            : 63.8 Kbps\r\nChannel(s)                  : 2 channels\r\nChannel positions           : Front: L R\r\nSampling rate               : 48.0 KHz\r\nFrame rate                  : 46.875 fps (1024 spf)\r\nCompression mode            : Lossy\r\nStream size                 : 44.2 MiB (1%)\r\n\r\nUploaded &amp; Shared by Manojvb\r\n\r\nSeeding 24x7... Extreme Seeding...\r\n\r\n \nhttp://i1306.photobucket.com/albums/s570/zyx55e/oie_1117625zVIGKvnK_zpsc8b6e055.gif","torrent":{"xt":"urn:btih:1816e84d2ea2fc14165c53fb9dcbe0dc769e5fbf","amp;dn":"Dombivali+Fast+2005+Marathi+1080p+Untouched+WebHD+x264+AAC+%5BTMB%5D","amp;tr":["udp%3A%2F%2Ftracker.leechers-paradise.org%3A6969","udp%3A%2F%2Fzer0day.ch%3A1337","udp%3A%2F%2Fopen.demonii.com%3A1337","udp%3A%2F%2Ftracker.coppersurfer.tk%3A6969","udp%3A%2F%2Fexodus.desync.com%3A6969"],"infoHash":"1816e84d2ea2fc14165c53fb9dcbe0dc769e5fbf","infoHashBuffer":{"type":"Buffer","data":[24,22,232,77,46,162,252,20,22,92,83,251,157,203,224,220,118,158,95,191]},"announce":[],"urlList":[]}}